#!OML:ASF G:\JayActor3\Patient Classification 1\Patient 1\Session 5\male.ASF
:FULLY-SPECIFIED
:DEGREES
623
root -9.44394 16.8905 -6.00804 132.376 -88.6427 -135.342
lowerback 0.0309816 -1.1517 -0.705616
upperback 1.71884 -1.53761 -0.213467
thorax 1.75543 -0.781947 0.153144
lowerneck -7.35103 0.446358 2.03074
upperneck 11.0656 0.0402983 1.98131
head 4.52464 0.187411 0.277886
rclavicle 1.28278e-015 -6.36111e-015
rhumerus -33.0312 -4.38754 -86.8979
rradius 29.4179
rwrist 0.484589
rhand -18.2353 -7.70035
rfingers 7.12502
rthumb 8.04326 -37.5273
lclavicle 1.28278e-015 -6.36111e-015
lhumerus -31.5457 6.50879 83.5096
lradius 27.9654
lwrist 17.534
lhand -19.4283 14.7673
lfingers 7.12502
lthumb 6.89171 44.6351
rfemur -21.5785 6.98105 25.3691
rtibia 33.4467
rfoot -13.104 -17.619
rtoes 16.1365
lfemur 19.8311 3.44239 -18.3117
ltibia 14.2905
lfoot -3.72655 -7.46123
ltoes -17.5063
624
root -9.33486 16.8864 -5.99078 138.768 -88.7687 -141.67
lowerback 0.112714 -1.14701 -0.917766
upperback 1.73125 -1.52989 -0.280435
thorax 1.72604 -0.780943 0.205042
lowerneck -7.33464 0.444311 2.02253
upperneck 10.9742 0.0366138 2.02908
head 4.49388 0.187159 0.293522
rclavicle 2.22949e-014 -2.5842e-015
rhumerus -32.9505 -4.39418 -86.9792
rradius 29.4886
rwrist 0.471363
rhand -18.256 -7.72375
rfingers 7.12502
rthumb 8.02326 -37.5515
lclavicle 2.22949e-014 -2.5842e-015
lhumerus -31.3424 6.28836 83.5698
lradius 28.1373
lwrist 17.6859
lhand -19.4741 14.7737
lfingers 7.12502
lthumb 6.84747 44.643
rfemur -22.1338 7.17503 25.0196
rtibia 33.5112
rfoot -12.6789 -17.8677
rtoes 16.1164
lfemur 20.6903 3.56035 -18.6178
ltibia 12.0777
lfoot -3.82366 -7.29284
ltoes -17.0101
625
root -9.22461 16.8837 -5.97339 146.924 -88.8651 -149.767
lowerback 0.204605 -1.13942 -1.1224
upperback 1.74353 -1.51899 -0.35335
thorax 1.6904 -0.77819 0.246899
lowerneck -7.32548 0.441547 2.0189
upperneck 10.9046 0.0312523 2.06977
head 4.47104 0.186046 0.306173
rclavicle 8.21229e-015 -3.57812e-015
rhumerus -32.8699 -4.40529 -87.0661
rradius 29.5545
rwrist 0.468368
rhand -18.2518 -7.75951
rfingers 7.12502
rthumb 8.02729 -37.5871
lclavicle 8.21229e-015 -3.57812e-015
lhumerus -31.1481 6.0578 83.6212
lradius 28.2958
lwrist 17.8249
lhand -19.5069 14.7775
lfingers 7.12502
lthumb 6.8158 44.6477
rfemur -22.6667 7.33602 24.6684
rtibia 33.5422
rfoot -12.2198 -18.0932
rtoes 16.0553
lfemur 21.6279 3.56788 -18.9787
ltibia 9.68548
lfoot -3.76692 -6.9214
ltoes -16.4057
626
root -9.11422 16.8825 -5.95544 156.973 -88.9369 -159.767
lowerback 0.296889 -1.13334 -1.32659
upperback 1.76009 -1.51063 -0.434117
thorax 1.65875 -0.776714 0.28036
lowerneck -7.32049 0.439674 2.0157
upperneck 10.8515 0.026839 2.10604
head 4.45396 0.1853 0.317482
rclavicle -9.29629e-015 0
rhumerus -32.7892 -4.40185 -87.1656
rradius 29.6178
rwrist 0.437156
rhand -18.2582 -7.78578
rfingers 7.12502
rthumb 8.02111 -37.6136
lclavicle -9.29629e-015 0
lhumerus -30.961 5.82419 83.665
lradius 28.438
lwrist 17.9491
lhand -19.5283 14.7728
lfingers 7.12502
lthumb 6.79521 44.6438
rfemur -23.1696 7.43774 24.3034
rtibia 33.543
rfoot -11.7256 -18.2732
rtoes 15.9439
lfemur 22.7862 3.58906 -19.3642
ltibia 6.87676
lfoot -3.42801 -6.48053
ltoes -15.7475
627
root -9.00314 16.8829 -5.93694 168.042 -88.9645 -170.784
lowerback 0.389561 -1.12767 -1.51909
upperback 1.77483 -1.50344 -0.516619
thorax 1.62465 -0.775616 0.305493
lowerneck -7.33526 0.437324 2.01642
upperneck 10.8324 0.020936 2.13065
head 4.45062 0.183767 0.324581
rclavicle -5.26158e-015 6.36111e-015
rhumerus -32.7077 -4.38294 -87.2727
rradius 29.6774
rwrist 0.393805
rhand -18.2558 -7.81234
rfingers 7.12502
rthumb 8.02346 -37.64
lclavicle -5.26158e-015 6.36111e-015
lhumerus -30.7799 5.58755 83.7047
lradius 28.5622
lwrist 18.0665
lhand -19.5381 14.7741
lfingers 7.12502
lthumb 6.78573 44.6453
rfemur -23.655 7.48716 23.9373
rtibia 33.5109
rfoot -11.194 -18.3988
rtoes 15.8163
lfemur 24.7927 3.63267 -19.7699
ltibia 2.4774
lfoot -2.2789 -5.89493
ltoes -15.0914
628
root -8.89143 16.8846 -5.91738 178.71 -88.9444 -181.398
lowerback 0.479411 -1.12272 -1.68814
upperback 1.78819 -1.49781 -0.596754
thorax 1.5902 -0.774951 0.319849
lowerneck -7.361 0.437931 2.0221
upperneck 10.8359 0.0193059 2.13883
head 4.45603 0.18391 0.326139
rclavicle 1.21756e-014 5.96354e-015
rhumerus -32.6259 -4.3392 -87.3844
rradius 29.7396
rwrist 0.333494
rhand -18.251 -7.82706
rfingers 7.12502
rthumb 8.02804 -37.6546
lclavicle 1.21756e-014 5.96354e-015
lhumerus -30.6047 5.36022 83.7414
lradius 28.668
lwrist 18.1721
lhand -19.5373 14.7698
lfingers 7.12502
lthumb 6.78652 44.641
rfemur -24.1269 7.47501 23.5783
rtibia 33.4484
rfoot -10.6153 -18.4617
rtoes 15.66
lfemur 25.7345 3.68715 -20.1726
ltibia 9.54166e-015
lfoot -1.90953 -5.44895
ltoes -14.4486
629
root -8.77917 16.8873 -5.89654 187.35 -88.8839 -189.98
lowerback 0.567192 -1.11771 -1.81855
upperback 1.79913 -1.49267 -0.670007
thorax 1.55358 -0.773958 0.319619
lowerneck -7.40258 0.440546 2.03334
upperneck 10.8647 0.0203857 2.13047
head 4.47187 0.185052 0.321957
rclavicle -6.01324e-015 -5.56597e-015
rhumerus -32.5507 -4.27013 -87.4976
rradius 29.813
rwrist 0.25845
rhand -18.241 -7.83008
rfingers 7.12502
rthumb 8.0377 -37.6572
lclavicle -6.01324e-015 -5.56597e-015
lhumerus -30.4346 5.14918 83.7765
lradius 28.7539
lwrist 18.2635
lhand -19.5283 14.7749
lfingers 7.12502
lthumb 6.79514 44.6459
rfemur -24.5865 7.40882 23.2388
rtibia 33.3546
rfoot -9.99896 -18.4611
rtoes 15.5324
lfemur 25.3115 3.73875 -20.5418
ltibia -4.77083e-014
lfoot -2.5756 -5.17536
ltoes -13.814
630
root -8.66626 16.8908 -5.87411 193.664 -88.8003 -196.237
lowerback 0.658403 -1.11383 -1.90729
upperback 1.8083 -1.48962 -0.734896
thorax 1.51238 -0.773391 0.304721
lowerneck -7.45135 0.446757 2.04593
upperneck 10.9054 0.0271847 2.10894
head 4.49254 0.188502 0.313887
rclavicle 4.77704e-015 5.1684e-015
rhumerus -32.481 -4.1764 -87.6055
rradius 29.9003
rwrist 0.189355
rhand -18.206 -7.82975
rfingers 7.12502
rthumb 8.0715 -37.6556
lclavicle 4.77704e-015 5.1684e-015
lhumerus -30.2708 4.96668 83.8087
lradius 28.8193
lwrist 18.3324
lhand -19.5126 14.7794
lfingers 7.12502
lthumb 6.81036 44.6498
rfemur -25.0354 7.28415 22.9203
rtibia 33.2376
rfoot -9.34953 -18.3982
rtoes 15.4423
lfemur 24.8774 3.79671 -20.8878
ltibia 3.49861e-014
lfoot -3.16688 -4.89184
ltoes -13.1713
631
root -8.55314 16.8952 -5.85015 197.227 -88.7086 -199.744
lowerback 0.750599 -1.10936 -1.939
upperback 1.81798 -1.48613 -0.786884
thorax 1.46997 -0.771832 0.271172
lowerneck -7.50631 0.455941 2.06048
upperneck 10.9542 0.0388541 2.07528
head 4.51671 0.193875 0.302094
rclavicle -1.88845e-015 3.97569e-015
rhumerus -32.4237 -4.05498 -87.7085
rradius 30.011
rwrist 0.115712
rhand -18.163 -7.82271
rfingers 7.12502
rthumb 8.11297 -37.647
lclavicle -1.88845e-015 3.97569e-015
lhumerus -30.1177 4.80787 83.8416
lradius 28.8712
lwrist 18.3845
lhand -19.5023 14.7818
lfingers 7.12502
lthumb 6.82031 44.6519
rfemur -25.4718 7.11522 22.6408
rtibia 33.1043
rfoot -8.66985 -18.2922
rtoes 15.3675
lfemur 24.4401 3.86166 -21.1917
ltibia 1.27222e-014
lfoot -3.69938 -4.60692
ltoes -12.5538
632
root -8.44082 16.9001 -5.82453 199.916 -88.6191 -202.394
lowerback 0.850149 -1.10698 -1.94384
upperback 1.83229 -1.48578 -0.835245
thorax 1.42765 -0.771538 0.226385
lowerneck -7.55591 0.470839 2.07902
upperneck 10.9977 0.0592262 2.03272
head 4.53837 0.203086 0.287422
rclavicle 1.39708e-014 5.56597e-015
rhumerus -32.3867 -3.91003 -87.8068
rradius 30.1537
rwrist 0.0288074
rhand -18.119 -7.81335
rfingers 7.12502
rthumb 8.15546 -37.636
lclavicle 1.39708e-014 5.56597e-015
lhumerus -29.9734 4.67823 83.8728
lradius 28.9012
lwrist 18.4122
lhand -19.4891 14.7736
lfingers 7.12502
lthumb 6.83301 44.6433
rfemur -25.8837 6.88524 22.3692
rtibia 32.969
rfoot -7.96026 -18.14
rtoes 15.2444
lfemur 24.0195 3.92282 -21.4852
ltibia 3.49861e-014
lfoot -4.1832 -4.33542
ltoes -12.0005
633
root -8.32939 16.9055 -5.79746 200.973 -88.5216 -203.424
lowerback 0.956311 -1.10039 -1.90681
upperback 1.84848 -1.48002 -0.873966
thorax 1.3826 -0.768012 0.168214
lowerneck -7.5993 0.490838 2.09223
upperneck 11.0352 0.0875482 1.99035
head 4.55717 0.215889 0.27415
rclavicle -1.39025e-014 -9.54166e-015
rhumerus -32.3709 -3.7366 -87.9001
rradius 30.3246
rwrist -0.0792248
rhand -18.0869 -7.79446
rfingers 7.12502
rthumb 8.18643 -37.6159
lclavicle -1.39025e-014 -9.54166e-015
lhumerus -29.8449 4.57424 83.9058
lradius 28.9186
lwrist 18.4239
lhand -19.4822 14.7692
lfingers 7.12502
lthumb 6.83969 44.6387
rfemur -26.282 6.63191 22.1234
rtibia 32.8408
rfoot -7.28099 -17.9464
rtoes 15.2234
lfemur 23.6148 3.99866 -21.7457
ltibia -2.8625e-014
lfoot -4.63051 -4.08443
ltoes -11.5805
